# xmcd CD database file
#
# Track frame offsets:
#	150
#	13911
#	35136
#	53673
#	59466
#	77019
#	91404
#	108117
#	126822
#	145359
#	163344
#	200673
#
# Disc length: 2915 seconds
#
# Revision: 1
# Processed by: cddbd v1.5.2PL0 Copyright (c) Steve Scherf et al.
# Submitted via: CDex 1.70beta2
#
DISCID=aa0b610c
DTITLE=WhiskeyDick - Rebel Flags and Whiskey
DYEAR=2006
DGENRE=Country
TTITLE0=Jim Beam and Me
TTITLE1=Andy's Song
TTITLE2=Blind Fool
TTITLE3=A Soldier's Story
TTITLE4=Rebel Flags and Whiskey
TTITLE5=Wookie Pussy
TTITLE6=First Love
TTITLE7=9" Clitoris
TTITLE8=River of Sin
TTITLE9=Blacktooth Grin
TTITLE10=Fallen Heroes
TTITLE11=WhiskeyDick
EXTD=YEAR: 2006
EXTT0=
EXTT1=
EXTT2=
EXTT3=
EXTT4=
EXTT5=
EXTT6=
EXTT7=
EXTT8=
EXTT9=
EXTT10=
EXTT11=
PLAYORDER=
